<svg xmlns="http://www.w3.org/2000/svg" viewBox="0 0 256 256" width="256" height="256" role="img">
  <rect width="256" height="256" fill="#A14E08"/>
  <circle cx="128" cy="128" r="104" fill="none" stroke="#FFFBD7" stroke-width="6" stroke-dasharray="2 12" stroke-linecap="round"/>
  <g transform="translate(128 132) scale(.78)">
    <path d="M-82 -14a82 64 0 0 1 164 0z" fill="#FFFBD7"/>
    <g fill="#FFC300"><circle cx="-30" cy="-44" r="5"/><circle cx="0" cy="-54" r="5"/><circle cx="30" cy="-44" r="5"/></g>
    <path d="M-90 4h180" stroke="#FFC300" stroke-width="12" stroke-linecap="round"/>
    <rect x="-86" y="16" width="172" height="26" rx="13" fill="#FFFBD7"/>
    <path d="M-82 54h164a0 0 0 0 1 0 0v8a22 22 0 0 1-22 22h-120a22 22 0 0 1-22-22z" fill="#FFFBD7"/></g>
</svg>
